<?xml version="1.0" encoding="UTF-8" standalone="no"?>
<svg
   xmlns:dc="http://purl.org/dc/elements/1.1/"
   xmlns:cc="http://creativecommons.org/ns#"
   xmlns:rdf="http://www.w3.org/1999/02/22-rdf-syntax-ns#"
   xmlns:svg="http://www.w3.org/2000/svg"
   xmlns="http://www.w3.org/2000/svg"
   xmlns:sodipodi="http://sodipodi.sourceforge.net/DTD/sodipodi-0.dtd"
   xmlns:inkscape="http://www.inkscape.org/namespaces/inkscape"
   inkscape:version="1.0 (4035a4fb49, 2020-05-01)"
   sodipodi:docname="Es.svg"
   viewBox="0 0 350 401.55762"
   height="401.55762"
   width="350"
   id="svg10"
   version="1.1">
  <metadata
     id="metadata16">
    <rdf:RDF>
      <cc:Work
         rdf:about="">
        <dc:format>image/svg+xml</dc:format>
        <dc:type
           rdf:resource="http://purl.org/dc/dcmitype/StillImage" />
        <dc:title></dc:title>
      </cc:Work>
    </rdf:RDF>
  </metadata>
  <defs
     id="defs14" />
  <sodipodi:namedview
     inkscape:current-layer="g22"
     inkscape:window-maximized="1"
     inkscape:window-y="-8"
     inkscape:window-x="-8"
     inkscape:cy="203.93089"
     inkscape:cx="409.41251"
     inkscape:zoom="0.92525359"
     showgrid="false"
     id="namedview12"
     inkscape:window-height="705"
     inkscape:window-width="1366"
     inkscape:pageshadow="2"
     inkscape:pageopacity="0"
     guidetolerance="10"
     gridtolerance="10"
     objecttolerance="10"
     borderopacity="1"
     bordercolor="#666666"
     pagecolor="#ffffff" />
  <g
     transform="translate(-226.27506,-26.059086)"
     id="g18"
     inkscape:label="Image"
     inkscape:groupmode="layer">
    <g
       transform="translate(226.21215,25.983828)"
       id="g22">
      <g
         transform="matrix(0.50944703,0,0,0.50944703,0.03086144,0.03691817)"
         id="g30">
        <path
           style="fill:#003f6e;stroke-width:0.196319"
           d="m 324.90798,788.19008 c -4.67009,-0.11881 -10.43435,-0.4377 -17.47239,-0.9666 -20.45945,-1.53747 -35.29936,-3.86595 -56.34356,-8.8406 -17.25075,-4.07792 -32.75928,-9.29472 -51.04295,-17.16994 -9.93928,-4.28109 -19.46007,-9.11327 -31.19077,-15.83058 -22.78988,-13.05011 -48.11049,-33.106 -66.39042,-52.5864 C 85.964058,675.20829 71.868175,656.93238 60.763111,638.72393 48.408722,618.46702 39.208138,599.85936 30.283073,577.07976 19.973099,550.76543 11.582135,519.84287 6.6835889,490.11043 3.4065369,470.21988 1.7970585,454.84998 0.70127155,432.9816 -0.53999381,408.20993 0.05613701,378.25908 2.2525342,355.04295 6.1501141,313.84514 14.347245,273.60265 25.586056,240.4908 c 8.628225,-25.42053 18.60645,-48.44823 29.518522,-68.1227 18.650573,-33.62699 39.313805,-60.89639 64.582832,-85.230386 6.82502,-6.572478 15.74397,-14.287454 23.17023,-20.042487 9.12643,-7.072583 10.91759,-8.377559 17.70932,-12.902385 10.87847,-7.247513 21.35155,-13.491054 30.45145,-18.153663 17.6158,-9.025994 33.42602,-15.548248 50.1601,-20.692761 25.82384,-7.9389496 48.18811,-12.1746628 74.6988,-14.1476793 29.20661,-2.17365693 52.36407,-1.20787402 72.53988,3.0252782 5.35797,1.1241739 17.13244,3.9706165 20.78364,5.024386 8.73353,2.5205661 23.42885,7.9447101 32.84251,12.1223851 10.77012,4.779667 25.44881,11.769472 32.65606,15.5504 3.88374,2.037418 26.97723,13.460474 31.0184,15.343075 6.05866,2.822455 15.20151,6.89334 18.06135,8.041869 5.42118,2.17718 11.08294,4.30484 14.49769,5.448155 l 3.60198,1.206 1.306,-0.645788 c 1.17169,-0.579378 1.36041,-0.756821 1.83513,-1.725542 0.29102,-0.593865 0.81195,-1.96319 1.15763,-3.042945 0.34566,-1.079754 0.79916,-2.360736 1.00775,-2.846625 0.2185,-0.508989 0.38111,-1.341095 0.38362,-1.963191 0.0155,-3.840645 2.60816,-10.568926 6.06061,-15.728272 2.02603,-3.027744 2.09855,-3.107933 5.85745,-6.477181 l 3.80602,-3.411485 5.62953,-2.299597 5.62952,-2.299596 6.4663,-0.166347 6.4663,-0.166349 6.61748,2.562758 6.61746,2.562757 4.41712,4.809815 4.4171,4.809816 1.95104,4.220859 c 1.6903,3.656809 2.04574,4.614383 2.65977,7.165645 1.34225,5.576852 1.32083,5.129197 1.49646,31.27818 l 0.15866,23.621741 4.58344,4.6482 c 10.41703,10.56416 14.41528,16.27566 19.95169,28.50096 1.532,3.3829 4.47348,10.57886 5.73782,14.03681 0.35531,0.97178 0.70429,1.83509 0.77552,1.91848 0.0712,0.0834 0.86745,-1.06508 1.76944,-2.55215 3.32965,-5.48946 11.09601,-18.07687 12.32133,-19.96994 2.48142,-3.83372 6.38243,-8.69735 11.72812,-14.62218 3.66355,-4.06045 9.05932,-9.56629 9.22028,-9.40836 0.40636,0.39872 1.94364,14.00055 3.18076,28.14335 0.43143,4.93225 0.49469,19.47724 0.10627,24.44172 -1.50398,19.22273 -4.5087,30.6334 -12.04511,45.74233 -3.24842,6.51235 -8.09655,14.80082 -10.44104,17.85013 -2.85017,3.70705 -8.82371,10.02527 -23.82886,25.20393 -6.53187,6.60739 -12.18513,12.38655 -12.56281,12.8426 l -0.68669,0.82917 2.24346,2.99905 c 5.09884,6.8161 9.96311,14.10854 11.65573,17.47408 1.97209,3.92124 3.83378,9.01668 5.86501,16.05257 0.60787,2.10553 1.14716,3.95226 1.19841,4.10386 0.0521,0.15409 0.85287,-0.97111 1.81625,-2.55215 4.0021,-6.56799 12.79825,-19.8944 15.79648,-23.93207 3.85337,-5.1893 9.56527,-11.98989 15.30104,-18.21741 1.62054,-1.75945 2.98179,-3.16364 3.02502,-3.12041 0.0874,0.0874 1.89976,19.19666 2.83371,29.87769 0.72147,8.25115 0.98438,19.49438 0.58762,25.12884 -1.08128,15.35529 -5.0641,30.63605 -11.15484,42.79754 -7.09487,14.16648 -18.37067,29.05117 -30.87143,40.75208 -5.12011,4.7925 -18.30619,17.33368 -18.60456,17.69467 -0.20906,0.25292 -0.11363,0.45365 0.59816,1.25836 4.16721,4.71119 8.74246,11.59252 11.89572,17.8915 2.54037,5.07469 4.08534,9.11472 6.66786,17.43627 0.9693,3.12334 1.85871,5.92705 1.97646,6.23048 0.22516,0.5802 0.60747,0.55452 0.60747,-0.0408 0,-0.49792 1.71901,-3.94705 3.15644,-6.33327 1.86316,-3.09297 5.95372,-9.12656 8.56377,-12.6316 3.97491,-5.33787 8.64677,-10.6721 19.47991,-22.24169 4.04702,-4.32212 5.04459,-5.29015 5.15889,-5.00613 0.43496,1.08083 2.86738,17.92518 3.41026,23.61592 0.80253,8.41233 -0.39865,23.70741 -3.0681,39.06749 -2.5713,14.79544 -4.21206,20.42322 -8.62162,29.5722 -4.8832,10.13165 -10.79745,19.14536 -22.03448,33.58207 -5.01565,6.44382 -6.78511,8.16566 -20.769,20.20985 -3.40122,2.92943 -6.56428,5.68078 -7.029,6.11408 l -0.84496,0.78781 1.74628,2.32712 c 3.45519,4.60447 8.02644,11.3368 10.18548,15.00074 2.36185,4.00813 5.31359,11.76766 8.1183,21.34133 0.57773,1.97205 1.11174,3.51806 1.18671,3.43558 0.075,-0.0824 1.17682,-2.00514 2.44859,-4.27262 5.07308,-9.04497 9.87229,-16.66182 13.53266,-21.47772 3.84648,-5.06079 10.73569,-12.87974 17.3184,-19.65567 2.67016,-2.74855 2.90619,-2.94404 3.04061,-2.51834 0.36341,1.1509 2.01928,13.04524 2.70167,19.40633 0.91443,8.5244 1.07757,11.46297 1.06263,19.1411 -0.0448,23.00215 -2.36933,36.02071 -9.58736,53.69325 -5.38709,13.1897 -11.69741,23.33582 -21.18423,34.06135 -8.39888,9.49556 -13.0763,14.05939 -19.75099,19.27134 -4.51167,3.52295 -13.23243,9.67718 -13.42616,9.47479 -0.044,-0.046 -0.31878,-3.04306 -0.61065,-6.66024 -0.29187,-3.61718 -0.56348,-6.61112 -0.6036,-6.65319 -0.0401,-0.0421 -0.91458,0.34682 -1.94325,0.8642 l -1.87033,0.94072 v 15.34027 c 0,12.76126 -0.0515,15.73495 -0.30616,17.68793 -1.17059,8.97655 -4.05171,15.43531 -9.69728,21.73891 -5.73457,6.40297 -13.88609,10.34615 -23.19874,11.22205 -1.79494,0.16883 -3.70876,0.30696 -4.25296,0.30696 -0.54417,0 -3.27264,-0.43288 -6.06325,-0.96196 l -5.07387,-0.96196 -4.48178,-2.62086 c -4.40996,-2.57883 -4.52677,-2.66403 -7.2853,-5.31335 -5.3217,-5.11099 -8.13943,-9.81658 -11.68682,-19.51688 -1.20485,-3.29467 -1.30041,-3.51447 -3.09714,-7.12354 -2.4205,-4.86205 -4.40619,-8.01629 -6.22092,-9.88181 -0.83041,-0.85366 -0.98543,-0.93232 -1.8328,-0.9302 -1.70201,0.004 -4.51453,0.87696 -7.60053,2.3583 -1.61963,0.77746 -3.17373,1.57638 -3.45356,1.77537 -0.27984,0.19899 -1.07493,0.65818 -1.76688,1.02043 -0.69194,0.36225 -3.51581,2.15515 -6.27525,3.98423 -2.75944,1.82909 -5.61822,3.71287 -6.35285,4.18619 -0.73462,0.47333 -2.05481,1.40883 -2.93375,2.0789 -0.87894,0.67008 -2.83489,1.99932 -4.34654,2.9539 -1.51166,0.95456 -4.02945,2.57339 -5.5951,3.59737 -7.47651,4.88995 -14.31358,8.32805 -39.64232,19.93466 -6.86864,3.14749 -17.90114,7.51347 -25.53559,10.10541 -12.62846,4.28745 -27.98648,8.75072 -35.85608,10.42034 -6.53833,1.38715 -24.194,4.07634 -30.30343,4.61561 -10.91096,0.96306 -26.3668,1.38199 -39.06749,1.05889 z"
           id="path24"
           sodipodi:nodetypes="sssssssssssssssssssssssssscssssssscccccccccssscsssssssssssssscsssssssssssssssssssssssssssscssssssssssssssssscsssssscssssscssssssssssssss" />
        <path
           style="fill:#fdc904;stroke-width:0.196319"
           d="m 325.39878,772.70255 c -27.34055,-0.94767 -45.34771,-3.32282 -71.34322,-9.41018 -10.37506,-2.42951 -20.40337,-5.49012 -32.50954,-9.92177 -14.72835,-5.39155 -31.24949,-13.17758 -44.64497,-21.04013 -24.26703,-14.24366 -44.61047,-30.25793 -63.6329,-50.09155 C 99.894569,668.29503 84.934708,648.82497 73.573387,630.57669 62.924022,613.47194 51.51581,590.31849 44.11889,570.79755 33.375852,542.44598 27.437315,520.44985 21.619379,487.46012 c -2.790297,-15.82195 -4.832727,-34.81507 -5.837246,-54.2822 -0.493902,-9.5716 -0.526145,-11.30498 -0.516727,-27.77915 0.0097,-16.95318 0.0312,-17.96719 0.612272,-28.85889 1.130587,-21.19211 2.996169,-38.58815 6.319413,-58.9268 6.138637,-37.5692 16.064381,-71.92743 30.670116,-106.1654 8.430416,-19.76211 21.23097,-43.24039 33.34852,-61.16655 8.743718,-12.93507 21.594183,-28.9721 31.775823,-39.65536 17.37807,-18.234251 32.34072,-31.07237 50.84281,-43.623703 18.59043,-12.611257 36.76875,-22.071901 60.07362,-31.264455 7.262,-2.864477 9.47603,-3.636616 17.07976,-5.956543 17.80167,-5.43136 32.33083,-8.624139 51.92638,-11.410814 8.30245,-1.180688 9.83014,-1.338919 18.94478,-1.9622 16.31372,-1.115571 29.14164,-1.376777 39.46013,-0.803498 11.41593,0.63425 17.16067,1.335038 29.05788,3.54471 17.72148,3.291414 39.19209,10.542604 58.9912,19.92288 3.23926,1.534675 6.99386,3.298134 8.34356,3.918797 2.82568,1.2994 8.19904,3.999935 17.96319,9.027873 11.79253,6.072444 29.84842,14.889518 37.59509,18.358483 8.13,3.640624 22.64899,9.284307 29.05522,11.294076 2.62873,0.824685 2.6687,0.83059 4.90797,0.725106 1.91484,-0.0902 2.54088,-0.208646 4.1227,-0.779983 1.83301,-0.662072 3.14857,-1.204788 3.73006,-1.538815 2.40607,-1.382088 4.70685,-3.033569 6.05207,-4.344136 0.25134,-0.244863 0.8808,-1.284468 1.39879,-2.310235 2.20062,-4.357807 3.4187,-8.026576 4.5301,-13.644172 1.15616,-5.843838 3.52287,-10.312447 7.25831,-13.704487 2.02304,-1.837071 2.12154,-1.897778 5.30061,-3.267475 l 3.23926,-1.395624 3.43559,0.01571 3.43558,0.0157 3.68132,1.321045 3.68131,1.321042 2.50273,2.768157 c 2.46186,2.722951 2.51935,2.807818 3.51983,5.196738 1.45502,3.474251 1.96321,5.476069 2.2113,8.710788 0.19335,2.521119 0.63589,141.378235 0.59657,187.190185 -0.0128,14.87753 -1.5318,153.72337 -1.68365,153.89201 -0.1548,0.17193 -2.95959,-2.32108 -5.03036,-4.47117 -11.45031,-11.88894 -19.63357,-30.46078 -22.81186,-51.77133 -1.21284,-8.13206 -1.80547,-17.29666 -1.62376,-25.10963 0.12606,-5.41968 0.29837,-7.40036 1.02683,-11.80315 1.39051,-8.40413 4.46353,-17.02196 8.30579,-23.29233 0.44778,-0.73074 0.81413,-1.37123 0.81413,-1.42331 0,-0.0521 -0.82831,-0.0947 -1.8407,-0.0947 -1.72039,0 -2.02515,-0.0661 -4.66258,-1.01198 -2.5459,-0.91302 -3.05125,-1.17701 -5.16729,-2.69939 -1.83248,-1.31838 -2.68202,-2.09382 -3.88457,-3.54586 -2.58297,-3.1188 -4.65835,-7.69768 -5.05374,-11.14991 -0.94473,-8.24894 -4.47751,-25.51309 -7.20055,-35.18795 -6.19021,-21.9936 -11.53739,-35.52377 -21.02581,-53.20245 -5.5346,-10.31198 -11.87431,-19.79038 -20.15605,-30.13497 -4.97166,-6.21003 -9.50414,-11.014 -17.38908,-18.43071 -9.06593,-8.52758 -17.03731,-14.50884 -29.64417,-22.24328 -8.47409,-5.19894 -23.23284,-12.137824 -32.91404,-15.474656 -26.83813,-9.250337 -54.337,-13.27523 -83.89578,-12.279467 -10.41749,0.350938 -19.42378,1.308345 -27.8773,2.963469 -13.62719,2.668086 -25.44852,6.314452 -35.73006,11.021168 -8.7672,4.013475 -15.75806,7.739446 -21.54857,11.484906 -17.90211,11.57957 -32.09998,24.38719 -45.65903,41.1881 -20.8284,25.80832 -37.09656,56.62369 -50.31983,95.31648 -3.58731,10.4969 -9.30345,30.69799 -11.73347,41.46666 -7.04023,31.19882 -11.22649,60.352 -12.76408,88.88917 -0.89232,16.56117 -0.9795,19.70348 -0.97495,35.1411 0.005,16.61177 0.20603,22.14115 1.27114,34.94479 2.67178,32.11728 10.13898,68.65486 20.08097,98.25767 6.38386,19.00827 11.45774,31.2177 20.39937,49.0876 7.76391,15.51621 17.47802,31.32753 27.58684,44.90213 14.17451,19.03421 34.23733,38.56314 51.3794,50.01217 5.54631,3.70432 13.78554,8.72385 16.68712,10.16614 12.83023,6.37759 24.73417,11.00555 35.43558,13.77652 8.31187,2.15224 15.22109,3.43905 22.18405,4.13171 3.18528,0.31685 7.6908,0.68884 10.01227,0.8266 5.49246,0.32597 17.33729,0.32241 20.90798,-0.006 1.51165,-0.13915 5.13374,-0.47012 8.04908,-0.7355 17.12051,-1.55846 32.45597,-5.21665 50.15951,-11.96528 11.74983,-4.47905 25.02957,-11.43201 35.73006,-18.70737 5.60385,-3.81014 11.0665,-7.84122 14.03681,-10.35826 15.12345,-12.81567 24.25718,-22.5879 35.95416,-38.46762 5.58125,-7.57705 8.99928,-12.90573 15.02139,-23.41828 6.84427,-11.94774 14.64909,-29.66398 20.08353,-45.58785 3.27937,-9.60913 7.56626,-24.42126 7.56696,-26.14555 0,-1.68735 1.30698,-7.41778 2.13358,-9.35967 0.33804,-0.79413 0.61461,-1.5382 0.61461,-1.65348 0,-0.1153 -0.42746,-0.70237 -0.94993,-1.3046 -7.90429,-9.11124 -14.13573,-18.0372 -17.62228,-25.24222 -2.80371,-5.79393 -4.30362,-10.78047 -6.53658,-21.73103 -1.07477,-5.27073 -1.51332,-8.449 -1.98586,-14.39167 -0.33606,-4.22622 -0.59728,-15.44085 -0.45878,-19.69528 l 0.1299,-3.98973 0.52747,0.84863 c 1.12287,1.80649 6.68306,11.47775 9.17872,15.96521 2.83785,5.10278 7.16321,13.63408 9.45565,18.65031 4.43542,9.70544 9.98602,23.7547 14.34894,36.31902 0.78737,2.26748 1.49456,4.19445 1.57149,4.28215 0.077,0.0877 0.9572,-0.33612 1.95609,-0.94181 2.22898,-1.35161 5.78577,-2.80031 7.3673,-3.00077 1.422,-0.18024 1.41699,0.12788 0.0689,-4.23835 -2.03695,-6.5976 -3.19201,-12.39668 -4.46591,-22.42134 -1.34836,-10.61075 -1.264,-16.39358 0.3819,-26.18081 1.74983,-10.40511 4.52009,-17.79069 10.21705,-27.23889 4.62361,-7.66809 9.97303,-13.36733 16.1346,-17.18968 1.65677,-1.02779 4.42144,-2.41865 4.54394,-2.28599 0.0378,0.0409 0.34201,27.2842 0.67606,60.54064 0.46932,46.72249 0.66397,60.66705 0.85641,61.34969 0.19967,0.7083 0.24905,20.42015 0.24905,99.43559 v 98.55214 l -0.45197,2.06135 c -0.86763,3.95717 -1.9223,6.55545 -3.64951,8.99104 -3.61176,5.09301 -9.05419,8.14657 -15.62018,8.76396 -2.31376,0.21756 -2.61032,0.20236 -5.50157,-0.28198 l -3.056,-0.51194 -2.64565,-1.59731 c -2.10723,-1.27224 -2.99061,-1.94937 -4.34056,-3.32717 -2.61901,-2.67302 -4.74238,-5.7899 -5.65881,-8.30654 -0.25559,-0.70184 -0.58947,-1.5274 -0.74197,-1.83458 -0.25751,-0.51873 -0.77315,-1.87675 -1.91237,-5.03658 -2.31391,-6.418 -7.60153,-15.88345 -11.01748,-19.72256 -2.27184,-2.55325 -3.24525,-3.34351 -5.47172,-4.44223 -2.56228,-1.26441 -4.70341,-1.73964 -7.8586,-1.74428 -4.74263,-0.007 -8.00671,0.89414 -14.20682,3.92208 -3.64458,1.77989 -9.91986,5.47803 -12.96938,7.64308 -0.69417,0.49284 -2.08187,1.42612 -3.0838,2.07397 -1.9284,1.24692 -3.16137,2.07709 -10.37803,6.98764 -2.48344,1.68986 -5.48712,3.62792 -6.67485,4.30683 -1.18773,0.67891 -2.5173,1.47742 -2.95462,1.77447 -2.74872,1.86711 -23.38248,11.83837 -32.8736,15.88615 -1.45767,0.62169 -3.53374,1.52621 -4.6135,2.01007 -1.07975,0.48387 -2.8927,1.24064 -4.02876,1.68173 -1.13606,0.44109 -2.81459,1.12532 -3.73006,1.52049 -3.66216,1.5808 -18.12239,6.64758 -25.12461,8.8035 -8.08468,2.4892 -20.74034,5.7248 -26.20859,6.7006 -0.97178,0.17341 -2.87117,0.52555 -4.22086,0.78251 -7.46022,1.42035 -17.22947,2.63283 -25.27525,3.137 -2.56487,0.16071 -5.77854,0.38425 -7.14148,0.49676 -3.51725,0.29032 -10.11353,0.58246 -12.54033,0.55539 -1.13374,-0.0126 -6.56687,-0.17916 -12.07362,-0.37004 z m 23.06749,-15.31966 c 38.33874,-1.80321 73.66514,-12.12156 119.06748,-34.77797 7.47805,-3.73165 10.9932,-5.84377 21.05178,-12.64923 13.52189,-9.14864 17.55856,-11.64967 23.70896,-14.68947 6.38157,-3.15408 11.22584,-4.76967 16.53244,-5.51366 3.37515,-0.47321 8.58389,-0.29491 11.54118,0.39505 9.0732,2.11689 14.90222,6.2125 20.97266,14.73583 4.14713,5.82288 8.81265,15.09124 11.90819,23.65644 0.56583,1.56564 1.30149,3.36475 1.63482,3.99804 1.31669,2.50157 3.356,4.05212 5.32655,4.04994 2.82711,-0.003 4.79747,-1.59338 5.70807,-4.60696 0.2607,-0.86274 0.29487,-12.29497 0.29432,-98.41455 v -97.43839 l -0.40638,-1.99407 c -1.05698,-5.18675 -3.09701,-7.43429 -7.0226,-7.73701 -5.22868,-0.4032 -8.48118,2.35229 -10.05913,8.52203 -0.20178,0.78897 -0.45743,2.31688 -0.56811,3.39532 -0.21939,2.13791 -0.91565,5.07312 -2.8855,12.1643 -11.27847,40.60103 -29.40091,76.03999 -53.2578,104.14724 -5.26614,6.20435 -15.41408,16.64911 -20.92056,21.53246 -31.46615,27.90536 -68.8764,44.90091 -109.84049,49.90075 -7.36175,0.89853 -11.78835,1.2362 -20.03271,1.52816 -16.77391,0.59403 -33.62471,-1.12561 -49.51593,-5.05309 -30.6573,-7.57676 -59.21887,-23.51093 -84.4613,-47.11967 -18.52488,-17.32596 -34.74226,-38.04494 -49.23302,-62.89904 -3.8452,-6.59516 -6.33988,-11.26047 -10.44528,-19.53374 -4.02186,-8.10492 -5.36908,-11.0115 -8.69003,-18.74847 -16.99645,-39.59737 -28.12347,-85.00237 -32.04141,-130.74847 -1.22142,-14.26141 -1.4833,-21.10951 -1.47898,-38.67484 0.004,-15.04254 0.13652,-20.37482 0.79216,-31.80368 4.44022,-77.40019 23.32583,-148.1016 53.77752,-201.32516 17.40919,-30.42786 38.00722,-54.45804 62.21707,-72.583992 27.03073,-20.237984 58.65372,-32.204423 92.97633,-35.183123 11.84381,-1.027869 26.37692,-1.029049 39.85276,-0.0032 65.62125,4.995241 118.44274,33.038455 154.22786,81.880365 14.82234,20.23052 26.50823,43.91358 34.73342,70.39203 4.3149,13.89044 7.47866,27.76228 9.98322,43.77241 0.90177,5.76452 1.49002,7.00453 3.89228,8.20496 1.03462,0.51701 1.41595,0.60034 2.74689,0.60034 0.85639,0 1.82718,-0.11836 2.17724,-0.26546 1.39338,-0.58552 2.47957,-2.23111 2.87706,-4.35869 0.28586,-1.53011 -0.0991,-200.912901 -0.39193,-202.983211 -0.24527,-1.734133 -1.05094,-3.392365 -1.93151,-3.97546 -0.78734,-0.52136 -1.87657,-0.573583 -2.91487,-0.139751 -1.75269,0.732323 -2.56901,2.215962 -3.29034,5.980242 -1.05302,5.495125 -3.33937,12.391629 -5.60778,16.915208 -2.38223,4.750553 -4.70537,7.360724 -9.60583,10.792697 -4.76356,3.336098 -10.49374,5.773707 -15.64107,6.653685 -2.51488,0.429941 -6.789,0.519211 -8.84943,0.184833 -1.46853,-0.23832 -9.11289,-2.763685 -14.96962,-4.945314 C 507.88974,87.212624 494.10167,80.971548 472.63805,70.092898 451.85603,59.559714 442.823,55.113514 435.14111,51.636315 399.90446,35.686496 371.51861,29.644349 336.39265,30.616944 c -4.21105,0.1166 -9.82086,0.34308 -12.46626,0.50329 C 270.07272,34.381707 221.52358,50.19746 179.43559,78.190693 137.63873,105.9903 103.2796,145.20101 77.90174,194.06135 52.845098,242.30325 37.204326,299.19749 32.108212,360.63804 c -3.049141,36.7615 -2.419361,73.03444 1.855947,106.8957 12.743572,100.93152 56.591281,183.68181 124.170811,234.33773 20.7363,15.5434 43.19005,27.78195 68.02454,37.0772 15.04931,5.63277 32.27703,10.3446 49.07976,13.42349 23.50812,4.30756 49.8516,6.11016 73.227,5.01073 z m -0.4908,-60.35172 c -13.99056,-0.72324 -28.91946,-3.49228 -40.67208,-7.54393 -19.80129,-6.82637 -38.62041,-17.94374 -55.22976,-32.62691 -7.77718,-6.87525 -16.36781,-15.81057 -23.10218,-24.02915 -7.86915,-9.60346 -12.47965,-16.11459 -20.7529,-29.30817 -8.3597,-13.33146 -14.82533,-26.0642 -22.99151,-45.27708 -5.556,-13.0718 -12.63411,-34.37397 -16.9644,-51.05574 -6.19747,-23.87485 -10.73302,-53.76356 -12.21429,-80.4908 -0.3436,-6.19952 -0.41356,-9.73254 -0.41407,-20.90798 -10e-4,-28.72106 1.44614,-49.68542 5.3608,-77.64417 3.92657,-28.0439 11.10496,-58.91112 19.33503,-83.1411 7.86669,-23.16013 15.71076,-40.66329 26.74615,-59.68099 10.70128,-18.4419 23.17397,-34.69718 36.43369,-47.48293 14.65506,-14.1312 27.93972,-23.18294 46.07325,-31.39287 9.95589,-4.50751 22.07398,-8.238941 32.63478,-10.048985 18.6819,-3.201929 36.29687,-3.648958 57.95381,-1.470737 14.67808,1.476297 33.12699,5.596462 45.60414,10.184702 9.47671,3.48488 16.73804,6.69564 23.16926,10.24478 14.72412,8.12571 23.60822,14.41639 34.39224,24.35258 12.64173,11.64784 25.88583,28.81536 34.20869,44.34269 8.99312,16.77774 15.31367,32.69501 19.87668,50.05605 2.81578,10.71334 4.53561,18.70023 6.27767,29.15337 0.58483,3.50921 1.24056,7.13129 1.45718,8.04908 0.61137,2.59039 2.01441,6.16821 3.61865,9.22792 1.18213,2.25459 1.94825,3.39177 3.98765,5.91904 2.50807,3.10806 2.54577,3.1436 5.82679,5.49348 2.54987,1.82621 3.27407,2.43934 3.17809,2.69059 -0.20152,0.52757 -5.82744,9.06295 -5.96349,9.0475 -0.0684,-0.008 -0.49992,-0.78076 -0.95896,-1.71779 -4.18016,-8.53295 -12.70355,-20.61519 -21.82726,-30.94104 -2.49715,-2.82615 -11.3415,-11.81895 -11.48342,-11.67615 -0.11705,0.11775 -1.05007,9.14681 -1.38768,13.42885 -2.34651,29.76092 -0.7395,55.41762 4.54351,72.53987 6.01729,19.50214 20.95167,40.58103 41.29621,58.28685 4.24067,3.69064 9.81825,8.11641 12.6135,10.00871 0.51288,0.34721 0.93252,0.70021 0.93252,0.78449 0,0.0843 -0.76092,0.98553 -1.69092,2.00283 -3.87732,4.24126 -8.43569,9.99032 -10.72832,13.53062 -3.48272,5.37806 -5.34534,10.07103 -7.00565,17.65106 -0.63395,2.89428 -1.68854,9.07126 -1.89832,11.11906 -0.0714,0.69668 -0.19197,1.26669 -0.26796,1.26669 -0.076,0 -0.73993,-0.99386 -1.47538,-2.20859 -5.59381,-9.23903 -12.82179,-19.9968 -18.63136,-27.73006 -6.6486,-8.85012 -17.30823,-21.28954 -17.79814,-20.76982 -0.25312,0.26848 -1.62354,11.43905 -2.23502,18.21767 -1.28273,14.22037 -1.43305,29.29636 -0.38953,39.06749 1.56536,14.65745 7.76673,34.68977 14.40172,46.52201 2.57667,4.59502 6.04117,9.68043 7.55026,11.08276 0.62792,0.58352 0.6302,0.72404 0.0413,2.56634 -0.47694,1.49212 -1.49999,6.58046 -1.49503,7.43584 0.004,0.74354 -2.04429,8.26658 -3.93608,14.4544 -4.29524,14.04941 -8.70992,25.6946 -14.17782,37.39877 -5.43531,11.63438 -8.97422,17.99476 -16.11175,28.95706 -8.86977,13.62281 -20.43498,27.03986 -33.0131,38.29927 -9.88841,8.85169 -12.51243,10.84275 -23.94874,18.17193 -6.52115,4.17922 -10.41901,6.25025 -20.71166,11.00459 -14.43968,6.66991 -34.1283,11.96868 -50.94479,13.71068 -9.43595,0.97747 -19.08564,1.28927 -27.09202,0.87537 z m 12.72964,-31.18063 c 18.82032,-14.08805 31.98127,-22.86698 48.52189,-32.36623 16.36887,-9.4006 29.22633,-14.79619 39.71905,-16.66794 7.95722,-1.41946 17.0776,-4.39014 24.10313,-7.85087 6.78985,-3.34465 12.48039,-7.26286 18.30353,-12.60288 4.17252,-3.82637 6.90844,-7.57605 9.77229,-13.39329 3.25161,-6.6049 5.09872,-13.74504 5.76173,-22.27238 0.13987,-1.799 0.2056,-42.65252 0.20621,-128.19632 0,-83.98215 0.0679,-126.62841 0.20333,-128.79511 0.45581,-7.29504 1.71959,-15.15051 3.42472,-21.28748 0.26802,-0.96457 0.46665,-1.76915 0.44143,-1.78797 -0.0252,-0.0188 -2.56364,-0.45254 -5.64094,-0.96381 -58.49386,-9.71822 -107.50062,-32.9837 -147.60177,-70.07244 -1.765,-1.63244 -3.28178,-2.99512 -3.37062,-3.0282 -0.0888,-0.0331 -1.16847,0.89452 -2.39921,2.06134 -14.00803,13.28059 -30.20918,25.25827 -48.12667,35.58057 -30.51206,17.57805 -64.42784,29.38856 -102.55494,35.71277 -1.86485,0.30932 -3.43672,0.60847 -3.49302,0.66477 -0.0563,0.0563 0.24872,1.50477 0.67783,3.21879 1.20711,4.82157 1.99972,9.1988 2.71503,14.99369 0.30121,2.44014 0.33634,12.90096 0.44302,131.92638 0.10882,121.41534 0.13673,129.44732 0.45887,132.09241 0.96161,7.89571 2.54577,13.61715 5.41686,19.56403 3.1462,6.51669 7.09591,11.60304 12.63705,16.27377 9.99026,8.4209 22.0321,14.08832 37.14849,17.48368 11.97096,2.68886 19.34851,5.38882 31.70552,11.60328 17.08908,8.59425 36.7873,21.33179 60.41873,39.06878 2.65235,1.99077 4.86049,3.61957 4.90696,3.61957 0.0465,0 2.83716,-2.06051 6.2015,-4.57891 z m -12.81058,-22.22488 c -4.10405,-3.40466 -7.51576,-6.27746 -7.58159,-6.38398 -0.1001,-0.16196 -0.85603,-229.98681 -0.87219,-265.1692 l -0.005,-11.2404 16.2454,0.0502 16.2454,0.0502 0.12162,60.17178 c 0.0669,33.09447 0.18281,95.43424 0.25761,138.53283 l 0.13599,78.36105 -8.43856,5.90888 c -4.6412,3.24989 -8.48538,5.90889 -8.54261,5.90889 -0.0572,0 -3.46189,-2.78563 -7.56592,-6.19029 z m -41.53869,-22.8833 c -1.29571,-0.54382 -3.67119,-1.43258 -5.27887,-1.97499 -5.58029,-1.88275 -11.59381,-4.59529 -14.69909,-6.63036 -0.78145,-0.51212 -2.3926,-1.70458 -3.58033,-2.64987 -1.18773,-0.9453 -2.71165,-2.08291 -3.3865,-2.528 l -1.22699,-0.80929 -0.003,-3.7375 c -0.002,-2.05562 -0.17698,-55.72769 -0.38937,-119.27124 -0.2124,-63.54356 -0.38766,-117.05767 -0.38946,-118.92025 l -0.003,-3.3865 h 16.29448 16.29448 l -0.003,2.01227 c -0.002,1.10675 -0.17702,54.26748 -0.38938,118.13497 -0.21236,63.86748 -0.38759,121.66625 -0.38938,128.44171 -0.003,9.72563 -0.0549,12.31785 -0.24866,12.31343 -0.13497,-0.003 -1.30552,-0.45053 -2.60122,-0.99438 z m 97.27281,-6.90187 c -0.002,-4.34601 -0.17706,-60.15705 -0.38946,-124.02454 C 403.0268,425.94847 402.85158,370.8 402.84982,367.2638 l -0.003,-6.42944 h 16.30662 16.30661 l -0.12152,25.96319 c -0.12641,27.00503 -0.68785,200.41443 -0.68796,212.48744 l -6e-5,6.89233 -1.12884,0.70302 c -0.62086,0.38667 -2.14478,1.51491 -3.3865,2.50724 -1.24172,0.99232 -2.92025,2.24426 -3.73006,2.7821 -2.79566,1.85671 -10.7126,5.41424 -14.72393,6.61632 -0.80982,0.24267 -2.85972,1.00712 -4.55533,1.69877 -1.69562,0.69167 -3.17538,1.25756 -3.28834,1.25756 -0.13954,0 -0.20645,-2.53398 -0.20867,-7.90184 z m -156.07036,-14.0116 c -0.91779,-0.25682 -2.77301,-0.69921 -4.1227,-0.98307 -5.26051,-1.10635 -11.12295,-4.01831 -14.76828,-7.33563 -0.72624,-0.66089 -2.03304,-2.10203 -2.90401,-3.20254 -0.87097,-1.10048 -2.15169,-2.71715 -2.84605,-3.59258 -0.69436,-0.8754 -1.77284,-1.97502 -2.39661,-2.4436 -0.62378,-0.46857 -1.21511,-0.91993 -1.3141,-1.00303 -0.17288,-0.14512 -1.90949,-219.96904 -1.74029,-220.28684 0.0431,-0.081 7.36153,-0.14724 16.26313,-0.14724 h 16.18474 v 89.68522 c 0,102.58591 -0.14958,149.83651 -0.47423,149.80013 -0.11709,-0.0132 -0.96381,-0.23398 -1.8816,-0.49082 z m 212.02452,-46.65097 c -2e-5,-25.94111 -0.0589,-79.83068 -0.1308,-119.75461 l -0.13075,-72.58895 h 16.90448 c 9.29745,0 16.94469,0.0662 16.99382,0.14724 0.0622,0.10253 -1.5654,219.94134 -1.63066,220.24948 -0.003,0.0157 -0.4257,0.29893 -0.93858,0.62936 -1.25609,0.80921 -3.15595,2.7926 -5.32272,5.55673 -0.98658,1.2586 -2.4321,2.87933 -3.21225,3.60163 -3.85433,3.56851 -10.16838,6.66642 -15.97063,7.8358 -1.41183,0.28454 -3.38386,0.73596 -4.38228,1.00315 -0.99841,0.26719 -1.89728,0.48581 -1.99746,0.48581 -0.11147,0 -0.18217,-18.29835 -0.18217,-47.16564 z M 245.77324,346.99082 c -7.01945,-0.95813 -12.8459,-3.60114 -18.03966,-8.1832 -5.69107,-5.02076 -9.39367,-11.37618 -10.8085,-18.5525 -0.79698,-4.04241 -0.74305,-9.9498 0.12947,-14.18476 2.40866,-11.69091 11.5204,-21.56655 23.13025,-25.06943 6.53332,-1.9712 14.90006,-1.80007 21.32459,0.43617 5.04954,1.75762 9.48949,4.72323 13.4153,8.96058 1.94222,2.09636 3.48003,4.08048 3.40747,4.39643 -0.0462,0.20115 -8.85735,7.97527 -9.14725,8.07066 -0.0713,0.0235 -0.54488,-0.59495 -1.05235,-1.37424 -2.54516,-3.90857 -6.54531,-7.04911 -10.84252,-8.51247 -4.42113,-1.50555 -10.13289,-1.50563 -14.55553,-1.9e-4 -4.92788,1.67742 -9.20406,5.30147 -11.73147,9.94238 -3.0637,5.62567 -3.41729,12.90884 -0.91815,18.91202 1.80671,4.33988 6.0309,8.80475 10.44855,11.0438 2.75662,1.39719 6.35516,2.23818 9.577,2.23818 3.06677,0 6.80596,-0.8393 9.2873,-2.08463 2.96067,-1.48592 6.74656,-4.84094 8.66621,-7.67993 0.52933,-0.78282 1.01342,-1.42331 1.07575,-1.42331 0.17717,0 9.13407,7.84403 9.21125,8.06677 0.25197,0.72726 -6.06257,7.23131 -9.09808,9.37113 -6.78987,4.78638 -15.08026,6.77305 -23.47963,5.62654 z m 56.36174,-42.94953 v -43.24704 l 2.60122,-1.39501 c 6.5643,-3.52037 13.20723,-7.63431 21.4426,-13.27933 5.79928,-3.9752 7.85994,-5.47573 16.31603,-11.88105 l 0.86714,-0.65684 v 56.85316 56.85316 h -6.08589 -6.08589 v -8.14934 -8.14935 l -8.39264,0.0512 -8.39263,0.0512 -0.0513,8.09815 -0.0513,8.09816 h -6.08371 -6.08371 z m 29.05521,-15.76782 c 0,-27.18818 -0.0327,-30.53607 -0.29699,-30.43465 -0.16334,0.0627 -2.15682,1.31365 -4.42998,2.77994 -2.27316,1.46629 -5.82765,3.68457 -7.89889,4.92951 -2.07125,1.24494 -3.87654,2.35536 -4.01174,2.46755 -0.19456,0.16148 -0.24583,5.45388 -0.24583,25.37428 0,13.84363 0.0589,25.22913 0.13088,25.3011 0.072,0.072 3.87075,0.13089 8.44172,0.13089 h 8.31083 z m 122.68121,58.71735 c -8.44337,-1.15249 -15.65723,-5.01459 -21.21142,-11.35597 -5.84501,-6.67342 -8.42633,-14.04005 -8.16148,-23.29129 0.18817,-6.57229 1.86401,-12.16899 5.15618,-17.21985 5.25971,-8.06938 13.24265,-13.4111 22.36987,-14.96862 10.34929,-1.76604 20.1624,0.74007 27.7098,7.07664 2.59921,2.18222 6.83181,6.96477 6.69597,7.56599 -0.046,0.20357 -8.85257,7.97056 -9.1468,8.06705 -0.0716,0.0235 -0.56977,-0.63912 -1.10712,-1.4724 -1.14041,-1.7685 -3.77044,-4.47833 -5.6213,-5.79184 -6.34102,-4.5001 -15.14736,-5.13759 -22.16245,-1.60432 -4.17832,2.10448 -7.56453,5.54766 -9.61783,9.77959 -1.65982,3.42096 -2.31211,6.8078 -2.10069,10.90704 0.52178,10.1164 8.20482,18.64412 18.14767,20.14284 4.40511,0.66401 9.09731,0 12.6741,-1.79606 2.96067,-1.48592 6.74656,-4.84094 8.66621,-7.67993 0.52934,-0.78282 1.01342,-1.42331 1.07575,-1.42331 0.17718,0 9.13408,7.84403 9.21125,8.06677 0.25198,0.72726 -6.06257,7.23131 -9.09807,9.37113 -6.78987,4.78638 -15.08027,6.77305 -23.47964,5.62654 z m -88.32538,-56.55044 v -56.65162 l 2.01227,1.7035 c 1.10675,0.93691 5.32515,4.67893 9.37423,8.31558 6.67061,5.99115 9.94594,8.88752 16.09406,14.23203 2.80779,2.4408 7.99293,7.6277 10.13845,10.14192 6.40781,7.50901 10.09511,14.14805 11.55211,20.79981 0.1774,0.80981 0.37381,2.67429 0.4365,4.14329 0.1879,4.40343 -0.54373,7.73986 -2.60353,11.8729 -2.30827,4.63166 -6.55678,9.34812 -12.13783,13.47485 -0.8746,0.64669 -1.61363,1.19737 -1.64227,1.22371 -0.0286,0.0263 2.24621,6.07845 5.05522,13.44915 2.80901,7.3707 5.10729,13.52395 5.10729,13.6739 0,0.2271 -1.07763,0.27263 -6.45204,0.27263 h -6.45204 l -4.16929,-10.84663 c -2.29312,-5.96564 -4.20054,-10.87955 -4.23872,-10.91981 -0.0382,-0.0402 -0.84632,0.11594 -1.79585,0.34709 -1.98384,0.48292 -5.28819,0.99806 -6.43807,1.0037 -0.4319,0.002 -0.98405,0.0571 -1.22699,0.12221 l -0.44172,0.11838 v 10.08752 10.08754 h -6.08589 -6.08589 z m 16.09816,23.34265 c 4.54536,-0.7381 7.91552,-2.34615 11.80029,-5.63043 4.31738,-3.65006 6.26783,-5.952 7.84341,-9.25689 1.1297,-2.36963 1.65644,-4.57168 1.49756,-6.26062 -0.24667,-2.62252 -2.12845,-7.05345 -4.54366,-10.69876 -2.22194,-3.35362 -4.59407,-6.11296 -9.21932,-10.72426 -3.71899,-3.70779 -10.81422,-10.10777 -11.20579,-10.10777 -0.0544,0 -0.0989,11.97883 -0.0989,26.61964 v 26.61966 l 1.03067,-0.12887 c 0.56688,-0.0709 1.86994,-0.26512 2.89571,-0.4317 z m 93.04469,-59.81042 7.15511,-5.40456 0.50134,0.34776 c 0.27573,0.19127 3.80073,2.66468 7.83332,5.49644 4.03261,2.83177 7.35494,5.12047 7.38295,5.086 0.028,-0.0345 -1.3451,-4.12647 -3.05133,-9.09334 -1.70622,-4.96687 -3.0408,-9.08462 -2.96575,-9.15059 0.0751,-0.0659 3.5223,-2.65804 7.66053,-5.76019 4.13823,-3.10218 7.492,-5.67235 7.45286,-5.71151 -0.0392,-0.0392 -3.91088,0.0106 -8.6038,0.11045 -4.69295,0.0999 -8.97657,0.18414 -9.51918,0.18723 l -0.98656,0.005 -3.11969,-9.02209 c -1.71581,-4.96216 -3.17502,-8.98788 -3.2427,-8.94607 -0.0677,0.0418 -1.35216,4.13266 -2.85442,9.09075 l -2.73136,9.0147 -3.52481,0.12766 c -1.93865,0.0702 -5.25544,0.13931 -7.37064,0.15353 -2.1152,0.0141 -4.84457,0.0805 -6.06524,0.14723 l -2.21939,0.12141 7.83048,5.46285 7.8305,5.46287 -2.81355,9.13506 c -1.54744,5.02427 -2.81354,9.17569 -2.81354,9.22534 0,0.12875 0.30015,-0.0931 8.23487,-6.08651 z m -264.14506,-0.50055 7.3675,-5.57089 1.03207,0.71282 c 0.56765,0.39207 4.07994,2.86276 7.80509,5.49047 3.72515,2.62769 6.80302,4.75436 6.83972,4.72591 0.0367,-0.0285 -1.32419,-4.1234 -3.02416,-9.09992 -1.69999,-4.97651 -3.05516,-9.07842 -3.01149,-9.11538 0.0437,-0.0369 3.52477,-2.64915 7.73581,-5.80488 l 7.65644,-5.73772 -8.53988,0.11895 c -4.69693,0.0654 -9.0386,0.16426 -9.64817,0.21964 l -1.1083,0.10071 -0.39241,-1.13625 c -3.9582,-11.4616 -5.76838,-16.64261 -5.89169,-16.86294 -0.0921,-0.16461 -1.22277,3.26579 -2.89276,8.77662 -1.50783,4.97576 -2.78588,9.1191 -2.84012,9.20742 -0.0542,0.0883 -4.42553,0.23493 -9.71399,0.32585 l -9.61538,0.16526 7.73247,5.39877 c 4.25286,2.96933 7.81662,5.45412 7.91943,5.52175 0.15507,0.10199 -5.13694,17.87659 -5.51612,18.52733 -0.16765,0.28775 0.0653,0.11636 8.10594,-5.96352 z m 222.39299,-37.00535 5.64846,-4.26776 7.7994,5.4836 c 4.28967,3.01599 7.83061,5.45594 7.86878,5.42216 0.0382,-0.0338 -1.31031,-4.09314 -2.9966,-9.02072 -1.6863,-4.92759 -3.02276,-9.02921 -2.96991,-9.1147 0.0529,-0.0855 3.49577,-2.70363 7.65097,-5.81804 4.15519,-3.11442 7.52516,-5.6923 7.48882,-5.72863 -0.0363,-0.0363 -4.33608,0.0222 -9.55498,0.13009 -5.21893,0.10787 -9.51539,0.16969 -9.54771,0.13736 -0.0323,-0.0323 -1.33974,-3.76078 -2.90538,-8.28546 -1.56562,-4.52468 -2.99078,-8.61633 -3.16702,-9.09256 l -0.32043,-0.86586 -2.79804,9.20942 -2.79801,9.20942 -3.50501,0.12274 c -1.92773,0.0675 -5.71357,0.14335 -8.41295,0.16854 -2.69939,0.0252 -5.42567,0.10248 -6.05841,0.17175 l -1.15043,0.12593 7.72712,5.3811 c 4.24991,2.95961 7.76357,5.41079 7.80816,5.44709 0.0446,0.0363 -1.17016,4.12719 -2.69939,9.09091 -1.52925,4.96371 -2.78043,9.122 -2.78043,9.24063 0,0.11864 0.90552,-0.48066 2.01227,-1.33177 1.10675,-0.8511 4.55407,-3.46795 7.66072,-5.81524 z m -172.3233,0.1974 c 3.99509,-3.02298 7.39791,-5.49919 7.56182,-5.50267 0.16391,-0.004 3.72708,2.40528 7.91813,5.3528 4.19106,2.94751 7.65703,5.32219 7.70217,5.27707 0.0451,-0.0451 -1.30003,-4.1184 -2.98919,-9.05172 -1.68917,-4.93332 -3.03649,-8.99677 -2.99405,-9.02987 0.0425,-0.0331 3.34591,-2.51679 7.341,-5.51931 3.99509,-3.00252 7.39632,-5.58524 7.55828,-5.73936 0.25526,-0.24291 -0.98357,-0.27199 -9.30273,-0.2184 l -9.59719,0.0618 -3.0731,-8.8748 c -1.69021,-4.88114 -3.11796,-8.91965 -3.17277,-8.97447 -0.0548,-0.0548 -1.13626,3.32043 -2.4032,7.50056 -1.26695,4.18013 -2.52382,8.31777 -2.79309,9.19474 l -0.48956,1.59449 -9.63477,0.17238 -9.63477,0.17238 7.72543,5.37831 c 4.24899,2.95806 7.80066,5.44505 7.89257,5.52664 0.0919,0.0816 -1.07863,4.20044 -2.60123,9.15304 -1.52259,4.9526 -2.76835,9.07451 -2.76835,9.15979 0,0.23482 -0.0179,0.24774 7.7546,-5.63343 z m 54.3233,-35.36216 c 5.21422,-3.94038 9.52456,-7.16451 9.57854,-7.16475 0.054,-2e-4 4.47117,3.07778 9.81596,6.84005 5.34478,3.76226 9.74451,6.81979 9.77717,6.79452 0.0327,-0.0253 -1.68347,-5.14308 -3.81365,-11.37288 -2.40807,-7.0425 -3.79707,-11.3765 -3.67219,-11.458 0.842,-0.54945 18.89822,-14.24623 18.84745,-14.29698 -0.0358,-0.0359 -5.3887,0.0375 -11.89526,0.16294 -9.32696,0.17985 -11.86156,0.17721 -11.97878,-0.0125 -0.0818,-0.13233 -1.8497,-5.16059 -3.9287,-11.17393 -2.07899,-6.01334 -3.83882,-10.99654 -3.91071,-11.07378 -0.0719,-0.0772 -1.44974,4.20743 -3.06185,9.52148 -1.61211,5.31405 -3.17972,10.46867 -3.48358,11.45471 l -0.55248,1.79282 -8.78334,0.13677 c -4.83084,0.0752 -10.21518,0.19606 -11.96519,0.26854 l -3.18184,0.13176 9.79173,6.82969 c 9.58303,6.68413 9.7884,6.84103 9.63633,7.36196 -0.2944,1.00853 -6.7388,21.93146 -6.83048,22.17645 -0.0505,0.13497 -0.0418,0.2454 0.0192,0.2454 0.0611,0 4.37734,-3.22394 9.59155,-7.16431 z m 66.01386,-0.001 c 5.14661,-3.88711 9.47053,-7.05748 9.60876,-7.04525 0.13823,0.0122 4.55513,3.04715 9.81538,6.74427 5.26023,3.69713 9.60377,6.68233 9.65232,6.63379 0.0485,-0.0485 -1.6447,-5.14303 -3.76275,-11.32109 -2.11804,-6.17807 -3.81978,-11.25851 -3.78161,-11.28987 0.0382,-0.0314 4.33998,-3.25703 9.55958,-7.16816 5.21959,-3.91114 9.45319,-7.14815 9.40798,-7.19336 -0.0452,-0.0452 -5.40575,0.0205 -11.91231,0.14591 -8.67019,0.16719 -11.86481,0.16988 -11.96013,0.0101 -0.0715,-0.11992 -1.85272,-5.20932 -3.95824,-11.30977 -2.10552,-6.10046 -3.886,-11.0306 -3.95663,-10.95588 -0.0706,0.0747 -1.66885,5.2156 -3.55161,11.42419 l -3.4232,11.28834 -7.93305,0.1482 c -4.36319,0.0815 -9.75352,0.21403 -11.97854,0.29448 l -4.04549,0.14632 9.70825,6.77301 c 5.33954,3.72515 9.73901,6.82265 9.77661,6.88334 0.0376,0.0607 -1.38582,4.83124 -3.16313,10.60123 -4.09084,13.28078 -3.82989,12.39518 -3.63024,12.32108 0.0938,-0.0348 4.38147,-3.24369 9.52805,-7.13081 z m 254.3377,506.92455 c 0,-1.34204 0.54677,-7.84536 0.99274,-11.80794 1.97495,-17.54749 5.50524,-33.68028 10.09463,-46.13071 5.01727,-13.61119 12.96477,-28.21047 22.55221,-41.42757 2.65859,-3.6651 5.48645,-7.18589 5.64215,-7.02471 0.68682,0.71097 1.22377,16.80185 0.78606,23.55624 -1.82865,28.21878 -11.47212,52.86204 -28.3321,72.40098 -3.21627,3.72734 -8.9716,9.34687 -11.19187,10.92785 l -0.54382,0.38724 z m 0.3018,-149.67297 c 1.60432,-20.03188 4.42582,-36.47074 8.80701,-51.312 5.23251,-17.72523 16.18352,-36.67202 29.64046,-51.28226 1.68402,-1.82834 1.78627,-1.90528 1.91122,-1.43809 0.6072,2.27039 0.85083,14.80221 0.39757,20.44953 -1.31296,16.35873 -5.29944,31.76787 -11.93547,46.13497 -6.1417,13.29688 -15.12308,25.96733 -25.53565,36.02438 -1.67697,1.61971 -3.12958,2.94494 -3.22801,2.94494 -0.10285,0 -0.12716,-0.6472 -0.0571,-1.52147 z m 0.96797,-150.23867 c 0.0615,-0.69879 0.29041,-3.34661 0.5088,-5.88403 1.28683,-14.9507 4.20959,-31.515 7.74215,-43.8773 4.1142,-14.39774 10.32256,-27.69465 19.09547,-40.89814 3.39366,-5.10759 9.17178,-12.75616 10.60295,-14.03526 0.39427,-0.35235 0.40183,-0.34415 0.62003,0.67331 0.89781,4.18637 1.48726,12.67289 1.32113,19.02082 -0.46258,17.67696 -4.46712,33.82895 -12.31424,49.66872 -2.58087,5.2096 -4.44245,8.45948 -7.53441,13.15337 -5.93848,9.01515 -12.43032,16.60989 -19.70195,23.04911 l -0.45166,0.39996 z m -67.16105,-0.90988 c -8.6123,-5.84867 -17.94543,-15.73989 -23.8999,-25.32906 -4.11188,-6.62182 -8.63158,-16.58332 -10.98426,-24.20951 -1.89543,-6.14402 -4.21802,-18.40422 -4.87203,-25.71779 -0.45458,-5.08339 -0.15496,-24.06435 0.39577,-25.07216 0.24699,-0.45196 8.43947,14.97255 13.01729,24.50851 6.98588,14.55217 10.06938,22.43433 17.53879,44.83359 4.05057,12.14685 10.37412,31.90184 10.21175,31.90184 -0.0327,0 -0.66603,-0.41194 -1.40741,-0.91542 z m 67.56093,-149.51403 c 0.0504,-0.45889 0.18544,-2.07116 0.30013,-3.58282 1.16785,-15.39341 4.51312,-34.55093 8.31315,-47.60736 4.30498,-14.79138 11.56812,-29.60237 21.22808,-43.28835 2.25519,-3.1951 5.96629,-8.00315 7.93101,-10.27531 l 0.56695,-0.65568 0.22327,1.04104 c 0.73428,3.4238 1.38739,11.31414 1.38739,16.76112 0,27.62512 -9.95997,54.445 -28.54276,76.85889 -2.39303,2.8864 -10.85617,11.58283 -11.27209,11.58283 -0.15022,0 -0.19581,-0.28154 -0.13513,-0.83436 z"
           id="path26" />
      </g>
    </g>
  </g>
</svg>
